Coordinates
version=1
nRows=19
nColumns=24
inDegrees=yes

Units are S.I. units (second, meters, Newtons, ...)
Angles are in degrees.

endheader
time	pelvis_tilt	pelvis_list	pelvis_rotation	pelvis_tx	pelvis_ty	pelvis_tz	hip_flexion_r	hip_adduction_r	hip_rotation_r	knee_angle_r	ankle_angle_r	subtalar_angle_r	mtp_angle_r	hip_flexion_l	hip_adduction_l	hip_rotation_l	knee_angle_l	ankle_angle_l	subtalar_angle_l	mtp_angle_l	lumbar_extension	lumbar_bending	lumbar_rotation
      3.92500000	     -8.16864335	     -6.96311461	      7.48358198	     -0.25817849	     -0.03594747	      0.67860696	     30.13705418	      3.47604217	     -1.95467797	    -32.83147257	      2.52730206	     -2.54835910	     14.81104501	     15.39947534	     -5.95326551	      3.87381594	    -61.89494707	    -24.09213437	      7.68065965	     30.63300078	      8.41784145	     14.19152519	    -10.43751290
      3.93000000	     -8.06628789	     -6.94781729	      7.35202521	     -0.25139587	     -0.03458133	      0.67898740	     29.39563761	      3.65315660	     -1.80401972	    -32.48871984	      2.85581799	     -2.52225904	     14.61329732	     16.33924956	     -5.94378709	      3.56761625	    -63.04021716	    -23.42214733	      7.84788159	     32.77018223	      8.23260714	     14.22540089	    -10.06529681
      3.93500000	     -7.97659889	     -6.87632432	      7.19860943	     -0.24463337	     -0.03318892	      0.67940529	     28.65290114	      3.78720323	     -1.58428680	    -32.12739447	      3.15416305	     -2.52749279	     14.51486146	     17.27246235	     -5.88090165	      3.24378861	    -64.13782963	    -22.54342610	      8.15175087	     34.09204434	      8.04829153	     14.19324006	     -9.68997156
      3.94000000	     -7.87380528	     -6.87265685	      7.08953583	     -0.23779044	     -0.03170909	      0.67978876	     27.85608316	      3.97210223	     -1.42629623	    -31.68997780	      3.45744129	     -2.54849106	     14.15311601	     18.18450365	     -5.90011402	      2.95567150	    -65.06472184	    -22.18294989	      8.04267352	     36.17083599	      7.89167280	     14.22119428	     -9.33757177
      3.94500000	     -7.80069130	     -6.83486961	      6.93721172	     -0.23095285	     -0.03027026	      0.68016923	     27.07587029	      4.13121540	     -1.19277523	    -31.22344189	      3.70810887	     -2.57502185	     14.03760553	     19.11305995	     -5.88092291	      2.64423394	    -65.99657666	    -21.47296346	      8.08712899	     36.85188364	      7.75768748	     14.21783014	     -8.93636873
      3.95000000	     -7.71562864	     -6.83556974	      6.80310588	     -0.22417190	     -0.02886695	      0.68057259	     26.28092015	      4.31505089	     -1.01682535	    -30.73542866	      3.95081355	     -2.61765048	     13.91465780	     20.04620126	     -5.92771374	      2.32088605	    -66.86408881	    -20.95589871	      7.89056386	     37.33439046	      7.61554455	     14.24119275	     -8.63571598
      3.95500000	     -7.64529581	     -6.83878141	      6.64875249	     -0.21732169	     -0.02745325	      0.68105598	     25.47184148	      4.52597510	     -0.76180871	    -30.19773285	      4.13450582	     -2.79415099	     13.66297059	     20.95744709	     -5.98557791	      2.01787212	    -67.61609662	    -20.55272270	      7.62541281	     37.72036399	      7.50034267	     14.25907962	     -8.28992184
      3.96000000	     -7.56267759	     -6.79899003	      6.47810736	     -0.21040065	     -0.02599595	      0.68159504	     24.62623992	      4.71292258	     -0.42926019	    -29.66220027	      4.41638893	     -2.93600203	     12.81524402	     21.80439803	     -6.00852636	      1.71350690	    -68.24615793	    -20.21306402	      7.32656681	     37.90089303	      7.37627832	     14.22631772	     -7.92720664
      3.96500000	     -7.51017073	     -6.82918353	      6.35722546	     -0.20360944	     -0.02468872	      0.68198738	     23.82468853	      4.90655476	     -0.24461502	    -29.08902037	      4.58124506	     -3.04875399	     12.68132291	     22.72683150	     -6.08105807	      1.46580655	    -68.85026122	    -19.99914644	      6.78853109	     37.84273886	      7.28905690	     14.26574285	     -7.65343333
      3.97000000	     -7.43869221	     -6.79919203	      6.15013958	     -0.19672202	     -0.02334047	      0.68248841	     22.97878966	      5.09774645	      0.13132766	    -28.51305314	      4.76910078	     -3.22853052	     12.08594605	     23.56453463	     -6.12861682	      1.10957964	    -69.39779864	    -19.50256412	      6.29611053	     36.64868596	      7.16535744	     14.25229092	     -7.25372776
      3.97500000	     -7.39319290	     -6.79287187	      5.99296764	     -0.18988366	     -0.02208334	      0.68290872	     22.16017447	      5.27070510	      0.42390081	    -27.91604012	      4.92808890	     -3.38848829	     11.73530340	     24.43482658	     -6.17696467	      0.82547382	    -69.85055205	    -19.18155553	      5.69680202	     35.74756450	      7.08128260	     14.25307913	     -6.93987824
      3.98000000	     -7.35491685	     -6.79935006	      5.87452920	     -0.18311032	     -0.02087622	      0.68327933	     21.34990190	      5.43080618	      0.65173070	    -27.29640847	      5.00909084	     -3.61035819	     11.55606933	     25.30464012	     -6.21775710	      0.60901132	    -70.18621168	    -19.04845699	      5.00803060	     35.38484873	      7.00569504	     14.26028121	     -6.65395300
      3.98500000	     -7.28803432	     -6.72575843	      5.67217628	     -0.17624220	     -0.01966291	      0.68375423	     20.48945678	      5.55186363	      1.07226469	    -26.68967878	      5.19397686	     -3.75761867	     11.12159845	     26.08484454	     -6.22429121	      0.27260844	    -70.48620545	    -18.54532415	      4.55349530	     33.92407925	      6.88075405	     14.19201111	     -6.30798324
      3.99000000	     -7.27169959	     -6.72764309	      5.55330071	     -0.16947296	     -0.01862230	      0.68409398	     19.70430720	      5.68521808	      1.28728260	    -26.07304945	      5.31430940	     -3.90943514	     10.98356802	     26.93899782	     -6.26184891	      0.07407807	    -70.66357383	    -18.36316692	      3.93878164	     33.70526052	      6.83076928	     14.19028939	     -6.09640790
      3.99500000	     -7.23314428	     -6.62754737	      5.36584167	     -0.16275284	     -0.01752932	      0.68454624	     18.90027070	      5.75438228	      1.65643257	    -25.48467018	      5.35366809	     -4.21646721	     10.67026362	     27.71039019	     -6.22547112	     -0.22430833	    -70.74791826	    -18.08401492	      3.34313180	     33.11081311	      6.70869822	     14.08614881	     -5.69867031
      4.00000000	     -7.16673799	     -6.50332700	      5.18969412	     -0.15596909	     -0.01652304	      0.68495068	     18.06240819	      5.78178985	      2.03059243	    -24.92424007	      5.59063566	     -4.29148460	     10.12113212	     28.42810127	     -6.16539883	     -0.50629501	    -70.81279291	    -17.43370227	      3.10227313	     31.88513492	      6.57029942	     13.95483665	     -5.40654942
      4.00500000	     -7.17028271	     -6.42808819	      5.05922134	     -0.14932044	     -0.01568039	      0.68529933	     17.32876147	      5.82316046	      2.28804511	    -24.36455694	      5.68571751	     -4.46961324	      9.94978932	     29.23873504	     -6.12494765	     -0.70784892	    -70.76161411	    -17.20185214	      2.60038611	     31.74093657	      6.50564532	     13.86222476	     -5.13891538
      4.01000000	     -7.14760995	     -6.27943804	      4.87601941	     -0.14267601	     -0.01483831	      0.68575550	     16.56915927	      5.81328563	      2.65591888	    -23.82699997	      5.79597329	     -4.67392525	      9.72094967	     29.96287824	     -6.04419849	     -0.96291967	    -70.61590813	    -16.88347230	      2.26078415	     31.52072434	      6.38739245	     13.69238681	     -4.81716780
      4.01500000	     -7.08726960	     -6.15989770	      4.69241541	     -0.13604531	     -0.01407014	      0.68619667	     15.78145241	      5.82594166	      3.00597069	    -23.31155450	      5.97435679	     -4.75922439	      9.32385802	     30.63858751	     -6.00919171	     -1.20722777	    -70.43406978	    -16.44534514	      2.02086728	     31.05455127	      6.22860932	     13.55560780	     -4.50834352
